<svg xmlns="http://www.w3.org/2000/svg" viewBox="0 0 380.701 338.056" fill="#18181b" aria-hidden="true">
  <polygon points="117.991 185.588 154.855 253.166 0 206.302 129.465 109.42 117.991 185.588" />
  <path d="M44.654,142.958l19.425-14.536c4.598-16.667,12.07-32.6,22.284-47.18,23.449-33.472,58.528-55.808,98.777-62.895s80.848,1.923,114.319,25.372c33.472,23.449,55.808,58.528,62.896,98.777,7.087,40.249-1.923,80.848-25.372,114.319-23.449,33.472-58.528,55.808-98.777,62.896-40.249,7.087-80.848-1.923-114.319-25.372-14.591-10.222-27.064-22.655-37.082-36.761l-23.216-7.026c33.901,61.593,104.291,97.789,177.392,84.917,91.922-16.186,153.318-103.826,137.131-195.747C361.926,47.798,274.287-13.597,182.365,2.589,109.275,15.459,55.49,73.505,44.654,142.958Z" />
  <path d="M273.73,113.547l15.227,86.475-13.218,2.328-57.996-50.159,10.311,58.556-15.936,2.806-15.227-86.475,13.218-2.328,57.996,50.159-10.311-58.556,15.936-2.806Z" />
</svg>
